<svg xmlns="http://www.w3.org/2000/svg" xmlns:xlink="http://www.w3.org/1999/xlink" contentStyleType="text/css" data-diagram-type="CLASS" height="736px" preserveAspectRatio="none" style="width:1521px;height:736px;background:#FFFFFF;" version="1.1" viewBox="0 0 1521 736" width="1521px" zoomAndPan="magnify"><defs/><g><!--class User--><g id="elem_User"><rect codeLine="9" fill="#F1F1F1" height="210.9688" id="User" rx="2.5" ry="2.5" style="stroke:#181818;stroke-width:0.5;" width="168.6865" x="578" y="7"/><ellipse cx="642.1382" cy="23" fill="#FFAAAA" rx="11" ry="11" style="stroke:#181818;stroke-width:1;"/><path d="M642.9819,29.75 L640.5288,29.75 L640.5288,19.5 L637.3882,19.5 L637.3882,17.3594 L646.1226,17.3594 L646.1226,19.5 L642.9819,19.5 L642.9819,29.75 Z " fill="#000000"/><text fill="#000000" font-family="sans-serif" font-size="14" lengthAdjust="spacing" textLength="31.9102" x="662.6382" y="27.8467">User</text><line style="stroke:#181818;stroke-width:0.5;" x1="579" x2="745.6865" y1="39" y2="39"/><text fill="#000000" font-family="sans-serif" font-size="14" font-weight="bold" lengthAdjust="spacing" textLength="14.8203" x="584" y="55.9951">id</text><text fill="#000000" font-family="sans-serif" font-size="14" lengthAdjust="spacing" textLength="44.5703" x="598.8203" y="55.9951">: UUID</text><text fill="#000000" font-family="sans-serif" font-size="14" lengthAdjust="spacing" textLength="123.416" x="584" y="72.292">first_name: string</text><text fill="#000000" font-family="sans-serif" font-size="14" lengthAdjust="spacing" textLength="121.3105" x="584" y="88.5889">last_name: string</text><text fill="#000000" font-family="sans-serif" font-size="14" lengthAdjust="spacing" textLength="87.9648" x="584" y="104.8857">email: string</text><text fill="#000000" font-family="sans-serif" font-size="14" lengthAdjust="spacing" textLength="156.6865" x="584" y="121.1826">password_hash: string</text><text fill="#000000" font-family="sans-serif" font-size="14" lengthAdjust="spacing" textLength="126.0273" x="584" y="137.4795">is_online: boolean</text><text fill="#000000" font-family="sans-serif" font-size="14" lengthAdjust="spacing" textLength="138.0107" x="584" y="153.7764">last_seen: datetime</text><text fill="#000000" font-family="sans-serif" font-size="14" lengthAdjust="spacing" textLength="150.0898" x="584" y="170.0732">profile_picture: string</text><text fill="#000000" font-family="sans-serif" font-size="14" lengthAdjust="spacing" textLength="147.0684" x="584" y="186.3701">created_at: datetime</text><text fill="#000000" font-family="sans-serif" font-size="14" lengthAdjust="spacing" textLength="151.6484" x="584" y="202.667">updated_at: datetime</text><line style="stroke:#181818;stroke-width:0.5;" x1="579" x2="745.6865" y1="209.9688" y2="209.9688"/></g><!--class Contact--><g id="elem_Contact"><rect codeLine="22" fill="#F1F1F1" height="129.4844" id="Contact" rx="2.5" ry="2.5" style="stroke:#181818;stroke-width:0.5;" width="159.0684" x="7" y="328"/><ellipse cx="55.0498" cy="344" fill="#FFAAAA" rx="11" ry="11" style="stroke:#181818;stroke-width:1;"/><path d="M55.8936,350.75 L53.4404,350.75 L53.4404,340.5 L50.2998,340.5 L50.2998,338.3594 L59.0342,338.3594 L59.0342,340.5 L55.8936,340.5 L55.8936,350.75 Z " fill="#000000"/><text fill="#000000" font-family="sans-serif" font-size="14" lengthAdjust="spacing" textLength="54.4688" x="75.5498" y="348.8467">Contact</text><line style="stroke:#181818;stroke-width:0.5;" x1="8" x2="165.0684" y1="360" y2="360"/><text fill="#000000" font-family="sans-serif" font-size="14" font-weight="bold" lengthAdjust="spacing" textLength="14.8203" x="13" y="376.9951">id</text><text fill="#000000" font-family="sans-serif" font-size="14" lengthAdjust="spacing" textLength="44.5703" x="27.8203" y="376.9951">: UUID</text><text fill="#000000" font-family="sans-serif" font-size="14" font-style="italic" lengthAdjust="spacing" textLength="50.3125" x="13" y="393.292">user_id</text><text fill="#000000" font-family="sans-serif" font-size="14" lengthAdjust="spacing" textLength="44.5703" x="63.3125" y="393.292">: UUID</text><text fill="#000000" font-family="sans-serif" font-size="14" font-style="italic" lengthAdjust="spacing" textLength="72.167" x="13" y="409.5889">contact_id</text><text fill="#000000" font-family="sans-serif" font-size="14" lengthAdjust="spacing" textLength="44.5703" x="85.167" y="409.5889">: UUID</text><text fill="#000000" font-family="sans-serif" font-size="14" lengthAdjust="spacing" textLength="137.9697" x="13" y="425.8857">is_blocked: boolean</text><text fill="#000000" font-family="sans-serif" font-size="14" lengthAdjust="spacing" textLength="147.0684" x="13" y="442.1826">created_at: datetime</text><line style="stroke:#181818;stroke-width:0.5;" x1="8" x2="165.0684" y1="449.4844" y2="449.4844"/></g><!--class Message--><g id="elem_Message"><rect codeLine="30" fill="#F1F1F1" height="194.6719" id="Message" rx="2.5" ry="2.5" style="stroke:#181818;stroke-width:0.5;" width="383.1709" x="201" y="295"/><ellipse cx="357.6558" cy="311" fill="#FFAAAA" rx="11" ry="11" style="stroke:#181818;stroke-width:1;"/><path d="M358.4995,317.75 L356.0464,317.75 L356.0464,307.5 L352.9058,307.5 L352.9058,305.3594 L361.6401,305.3594 L361.6401,307.5 L358.4995,307.5 L358.4995,317.75 Z " fill="#000000"/><text fill="#000000" font-family="sans-serif" font-size="14" lengthAdjust="spacing" textLength="61.3594" x="378.1558" y="315.8467">Message</text><line style="stroke:#181818;stroke-width:0.5;" x1="202" x2="583.1709" y1="327" y2="327"/><text fill="#000000" font-family="sans-serif" font-size="14" font-weight="bold" lengthAdjust="spacing" textLength="14.8203" x="207" y="343.9951">id</text><text fill="#000000" font-family="sans-serif" font-size="14" lengthAdjust="spacing" textLength="44.5703" x="221.8203" y="343.9951">: UUID</text><text fill="#000000" font-family="sans-serif" font-size="14" font-style="italic" lengthAdjust="spacing" textLength="67.8125" x="207" y="360.292">sender_id</text><text fill="#000000" font-family="sans-serif" font-size="14" lengthAdjust="spacing" textLength="44.5703" x="274.8125" y="360.292">: UUID</text><text fill="#000000" font-family="sans-serif" font-size="14" font-style="italic" lengthAdjust="spacing" textLength="77" x="207" y="376.5889">receiver_id</text><text fill="#000000" font-family="sans-serif" font-size="14" lengthAdjust="spacing" textLength="44.5703" x="284" y="376.5889">: UUID</text><text fill="#000000" font-family="sans-serif" font-size="14" lengthAdjust="spacing" textLength="90.6445" x="207" y="392.8857">content: text</text><text fill="#000000" font-family="sans-serif" font-size="14" lengthAdjust="spacing" textLength="136.2744" x="207" y="409.1826">media_file_id: UUID</text><text fill="#000000" font-family="sans-serif" font-size="14" lengthAdjust="spacing" textLength="123.7031" x="207" y="425.4795">sent_at: datetime</text><text fill="#000000" font-family="sans-serif" font-size="14" lengthAdjust="spacing" textLength="125.2686" x="207" y="441.7764">read_at: datetime</text><line style="stroke:#181818;stroke-width:0.5;" x1="202" x2="583.1709" y1="449.0781" y2="449.0781"/><text fill="#000000" font-family="sans-serif" font-size="14" lengthAdjust="spacing" textLength="371.1709" x="207" y="466.0732">message_type: enum (text, image, video, file, audio)</text><text fill="#000000" font-family="sans-serif" font-size="14" lengthAdjust="spacing" textLength="252.8955" x="207" y="482.3701">status: enum (sent, delivered, read)</text></g><!--class Call--><g id="elem_Call"><rect codeLine="42" fill="#F1F1F1" height="145.7813" id="Call" rx="2.5" ry="2.5" style="stroke:#181818;stroke-width:0.5;" width="411.7998" x="619.5" y="319.5"/><ellipse cx="808.083" cy="335.5" fill="#FFAAAA" rx="11" ry="11" style="stroke:#181818;stroke-width:1;"/><path d="M808.9268,342.25 L806.4736,342.25 L806.4736,332 L803.333,332 L803.333,329.8594 L812.0674,329.8594 L812.0674,332 L808.9268,332 L808.9268,342.25 Z " fill="#000000"/><text fill="#000000" font-family="sans-serif" font-size="14" lengthAdjust="spacing" textLength="26.1338" x="828.583" y="340.3467">Call</text><line style="stroke:#181818;stroke-width:0.5;" x1="620.5" x2="1030.2998" y1="351.5" y2="351.5"/><text fill="#000000" font-family="sans-serif" font-size="14" font-weight="bold" lengthAdjust="spacing" textLength="14.8203" x="625.5" y="368.4951">id</text><text fill="#000000" font-family="sans-serif" font-size="14" lengthAdjust="spacing" textLength="44.5703" x="640.3203" y="368.4951">: UUID</text><text fill="#000000" font-family="sans-serif" font-size="14" font-style="italic" lengthAdjust="spacing" textLength="74.1973" x="625.5" y="384.792">initiator_id</text><text fill="#000000" font-family="sans-serif" font-size="14" lengthAdjust="spacing" textLength="44.5703" x="699.6973" y="384.792">: UUID</text><text fill="#000000" font-family="sans-serif" font-size="14" lengthAdjust="spacing" textLength="143.541" x="625.5" y="401.0889">started_at: datetime</text><text fill="#000000" font-family="sans-serif" font-size="14" lengthAdjust="spacing" textLength="137.3066" x="625.5" y="417.3857">ended_at: datetime</text><line style="stroke:#181818;stroke-width:0.5;" x1="620.5" x2="1030.2998" y1="424.6875" y2="424.6875"/><text fill="#000000" font-family="sans-serif" font-size="14" lengthAdjust="spacing" textLength="212.8027" x="625.5" y="441.6826">call_type: enum (audio, video)</text><text fill="#000000" font-family="sans-serif" font-size="14" lengthAdjust="spacing" textLength="399.7998" x="625.5" y="457.9795">status: enum (ringing, ongoing, ended, missed, rejected)</text></g><!--class CallParticipant--><g id="elem_CallParticipant"><rect codeLine="51" fill="#F1F1F1" height="162.0781" id="CallParticipant" rx="2.5" ry="2.5" style="stroke:#181818;stroke-width:0.5;" width="223.9072" x="901.5" y="567"/><ellipse cx="958.3511" cy="583" fill="#FFAAAA" rx="11" ry="11" style="stroke:#181818;stroke-width:1;"/><path d="M959.1948,589.75 L956.7417,589.75 L956.7417,579.5 L953.6011,579.5 L953.6011,577.3594 L962.3354,577.3594 L962.3354,579.5 L959.1948,579.5 L959.1948,589.75 Z " fill="#000000"/><text fill="#000000" font-family="sans-serif" font-size="14" lengthAdjust="spacing" textLength="101.7051" x="978.8511" y="587.8467">CallParticipant</text><line style="stroke:#181818;stroke-width:0.5;" x1="902.5" x2="1124.4072" y1="599" y2="599"/><text fill="#000000" font-family="sans-serif" font-size="14" font-weight="bold" lengthAdjust="spacing" textLength="14.8203" x="907.5" y="615.9951">id</text><text fill="#000000" font-family="sans-serif" font-size="14" lengthAdjust="spacing" textLength="44.5703" x="922.3203" y="615.9951">: UUID</text><text fill="#000000" font-family="sans-serif" font-size="14" font-style="italic" lengthAdjust="spacing" textLength="43.832" x="907.5" y="632.292">call_id</text><text fill="#000000" font-family="sans-serif" font-size="14" lengthAdjust="spacing" textLength="44.5703" x="951.332" y="632.292">: UUID</text><text fill="#000000" font-family="sans-serif" font-size="14" font-style="italic" lengthAdjust="spacing" textLength="50.3125" x="907.5" y="648.5889">user_id</text><text fill="#000000" font-family="sans-serif" font-size="14" lengthAdjust="spacing" textLength="44.5703" x="957.8125" y="648.5889">: UUID</text><text fill="#000000" font-family="sans-serif" font-size="14" lengthAdjust="spacing" textLength="136.1514" x="907.5" y="664.8857">joined_at: datetime</text><text fill="#000000" font-family="sans-serif" font-size="14" lengthAdjust="spacing" textLength="116.3545" x="907.5" y="681.1826">left_at: datetime</text><text fill="#000000" font-family="sans-serif" font-size="14" lengthAdjust="spacing" textLength="128.8232" x="907.5" y="697.4795">is_muted: boolean</text><line style="stroke:#181818;stroke-width:0.5;" x1="902.5" x2="1124.4072" y1="704.7813" y2="704.7813"/><text fill="#000000" font-family="sans-serif" font-size="14" lengthAdjust="spacing" textLength="211.9072" x="907.5" y="721.7764">role: enum (initiator, receiver)</text></g><!--class MediaFile--><g id="elem_MediaFile"><rect codeLine="61" fill="#F1F1F1" height="129.4844" id="MediaFile" rx="2.5" ry="2.5" style="stroke:#181818;stroke-width:0.5;" width="304.7969" x="240" y="583.5"/><ellipse cx="354.9019" cy="599.5" fill="#FFAAAA" rx="11" ry="11" style="stroke:#181818;stroke-width:1;"/><path d="M355.7456,606.25 L353.2925,606.25 L353.2925,596 L350.1519,596 L350.1519,593.8594 L358.8862,593.8594 L358.8862,596 L355.7456,596 L355.7456,606.25 Z " fill="#000000"/><text fill="#000000" font-family="sans-serif" font-size="14" lengthAdjust="spacing" textLength="66.4932" x="375.4019" y="604.3467">MediaFile</text><line style="stroke:#181818;stroke-width:0.5;" x1="241" x2="543.7969" y1="615.5" y2="615.5"/><text fill="#000000" font-family="sans-serif" font-size="14" font-weight="bold" lengthAdjust="spacing" textLength="14.8203" x="246" y="632.4951">id</text><text fill="#000000" font-family="sans-serif" font-size="14" lengthAdjust="spacing" textLength="44.5703" x="260.8203" y="632.4951">: UUID</text><text fill="#000000" font-family="sans-serif" font-size="14" lengthAdjust="spacing" textLength="96.1953" x="246" y="648.792">file_url: string</text><text fill="#000000" font-family="sans-serif" font-size="14" lengthAdjust="spacing" textLength="133.9229" x="246" y="665.0889">uploaded_by: UUID</text><text fill="#000000" font-family="sans-serif" font-size="14" lengthAdjust="spacing" textLength="158.6143" x="246" y="681.3857">uploaded_at: datetime</text><line style="stroke:#181818;stroke-width:0.5;" x1="241" x2="543.7969" y1="688.6875" y2="688.6875"/><text fill="#000000" font-family="sans-serif" font-size="14" lengthAdjust="spacing" textLength="292.7969" x="246" y="705.6826">file_type: enum (image, video, file, audio)</text></g><!--class Device--><g id="elem_Device"><rect codeLine="69" fill="#F1F1F1" height="129.4844" id="Device" rx="2.5" ry="2.5" style="stroke:#181818;stroke-width:0.5;" width="280.7344" x="1234" y="328"/><ellipse cx="1346.1777" cy="344" fill="#FFAAAA" rx="11" ry="11" style="stroke:#181818;stroke-width:1;"/><path d="M1347.0215,350.75 L1344.5684,350.75 L1344.5684,340.5 L1341.4277,340.5 L1341.4277,338.3594 L1350.1621,338.3594 L1350.1621,340.5 L1347.0215,340.5 L1347.0215,350.75 Z " fill="#000000"/><text fill="#000000" font-family="sans-serif" font-size="14" lengthAdjust="spacing" textLength="47.8789" x="1366.6777" y="348.8467">Device</text><line style="stroke:#181818;stroke-width:0.5;" x1="1235" x2="1513.7344" y1="360" y2="360"/><text fill="#000000" font-family="sans-serif" font-size="14" font-weight="bold" lengthAdjust="spacing" textLength="14.8203" x="1240" y="376.9951">id</text><text fill="#000000" font-family="sans-serif" font-size="14" lengthAdjust="spacing" textLength="44.5703" x="1254.8203" y="376.9951">: UUID</text><text fill="#000000" font-family="sans-serif" font-size="14" font-style="italic" lengthAdjust="spacing" textLength="50.3125" x="1240" y="393.292">user_id</text><text fill="#000000" font-family="sans-serif" font-size="14" lengthAdjust="spacing" textLength="44.5703" x="1290.3125" y="393.292">: UUID</text><text fill="#000000" font-family="sans-serif" font-size="14" lengthAdjust="spacing" textLength="122.2676" x="1240" y="409.5889">fcm_token: string</text><text fill="#000000" font-family="sans-serif" font-size="14" lengthAdjust="spacing" textLength="147.0684" x="1240" y="425.8857">created_at: datetime</text><line style="stroke:#181818;stroke-width:0.5;" x1="1235" x2="1513.7344" y1="433.1875" y2="433.1875"/><text fill="#000000" font-family="sans-serif" font-size="14" lengthAdjust="spacing" textLength="268.7344" x="1240" y="450.1826">device_type: enum (android, ios, web)</text></g><!--link User to Contact--><g id="link_User_Contact"><path codeLine="81" d="M569.9015,127.8543 C477.6115,144.7943 336.13,179.34 224.5,248 C190.64,268.82 171.1519,286.3003 146.9519,314.2103 " fill="transparent" id="User-Contact" style="stroke:#181818;stroke-width:1;"/><line style="stroke:#181818;stroke-width:1;" x1="573.1136" x2="574.5579" y1="123.1979" y2="131.0664"/><line style="stroke:#181818;stroke-width:1;" x1="570.1629" x2="571.6072" y1="123.7395" y2="131.608"/><line style="stroke:#181818;stroke-width:1;" x1="569.9015" x2="577.77" y1="127.8543" y2="126.41"/><line style="stroke:#181818;stroke-width:1;" x1="140.4008" x2="139.6932" y1="321.7657" y2="331.7406"/><line style="stroke:#181818;stroke-width:1;" x1="140.4008" x2="130.6268" y1="321.7657" y2="323.8794"/><line style="stroke:#181818;stroke-width:1;" x1="140.4008" x2="135.16" y1="321.7657" y2="327.81"/><ellipse cx="144.3315" cy="317.2325" fill="transparent" rx="4" ry="4" style="stroke:#181818;stroke-width:1;"/><text fill="#000000" font-family="sans-serif" font-size="13" lengthAdjust="spacing" textLength="22.9785" x="225.5" y="261.0669">has</text></g><!--link User to Contact--><g id="link_User_Contact"><path codeLine="82" d="M570.2316,147.3312 C437.3716,196.1912 200.84,283.82 183.5,295 C169.12,304.27 168.2038,303.546 155.5638,315.566 " fill="transparent" id="User-Contact-1" style="stroke:#181818;stroke-width:1;"/><line style="stroke:#181818;stroke-width:1;" x1="572.6052" x2="575.3664" y1="142.1964" y2="149.7048"/><line style="stroke:#181818;stroke-width:1;" x1="569.7896" x2="572.5508" y1="143.2319" y2="150.7403"/><line style="stroke:#181818;stroke-width:1;" x1="570.2316" x2="577.74" y1="147.3312" y2="144.57"/><line style="stroke:#181818;stroke-width:1;" x1="148.3172" x2="146.6547" y1="322.4571" y2="332.3179"/><line style="stroke:#181818;stroke-width:1;" x1="148.3172" x2="138.3853" y1="322.4571" y2="323.6221"/><line style="stroke:#181818;stroke-width:1;" x1="148.3172" x2="142.52" y1="322.4571" y2="327.97"/><ellipse cx="152.6652" cy="318.3224" fill="transparent" rx="4" ry="4" style="stroke:#181818;stroke-width:1;"/><text fill="#000000" font-family="sans-serif" font-size="13" lengthAdjust="spacing" textLength="84.5635" x="299.5" y="261.0669">is_contact_of</text></g><!--link User to Message--><g id="link_User_Message"><path codeLine="83" d="M572.2362,206.4387 C543.1662,236.3687 528.569,251.3959 498.819,282.0359 " fill="transparent" id="User-Message" style="stroke:#181818;stroke-width:1;"/><line style="stroke:#181818;stroke-width:1;" x1="572.1537" x2="577.8924" y1="200.7824" y2="206.3563"/><line style="stroke:#181818;stroke-width:1;" x1="570.0636" x2="575.8023" y1="202.9345" y2="208.5083"/><line style="stroke:#181818;stroke-width:1;" x1="572.2362" x2="577.81" y1="206.4387" y2="200.7"/><line style="stroke:#181818;stroke-width:1;" x1="491.8529" x2="490.5847" y1="289.2104" y2="299.1297"/><line style="stroke:#181818;stroke-width:1;" x1="491.8529" x2="481.9753" y1="289.2104" y2="290.7703"/><line style="stroke:#181818;stroke-width:1;" x1="491.8529" x2="486.28" y1="289.2104" y2="294.95"/><ellipse cx="496.0325" cy="284.9057" fill="transparent" rx="4" ry="4" style="stroke:#181818;stroke-width:1;"/><text fill="#000000" font-family="sans-serif" font-size="13" lengthAdjust="spacing" textLength="38.0352" x="528.5" y="261.0669">sends</text></g><!--link User to Call--><g id="link_User_Call"><path codeLine="84" d="M727.9356,225.1017 C747.6956,258.8117 755.9921,272.9643 774.0721,303.7843 " fill="transparent" id="User-Call" style="stroke:#181818;stroke-width:1;"/><line style="stroke:#181818;stroke-width:1;" x1="722.462" x2="729.3636" y1="223.6736" y2="219.628"/><line style="stroke:#181818;stroke-width:1;" x1="723.9791" x2="730.8807" y1="226.2618" y2="222.2162"/><line style="stroke:#181818;stroke-width:1;" x1="727.9356" x2="723.89" y1="225.1017" y2="218.2"/><line style="stroke:#181818;stroke-width:1;" x1="779.1321" x2="788.3552" y1="312.4097" y2="316.274"/><line style="stroke:#181818;stroke-width:1;" x1="779.1321" x2="778.0048" y1="312.4097" y2="322.346"/><line style="stroke:#181818;stroke-width:1;" x1="779.1321" x2="783.18" y1="312.4097" y2="319.31"/><ellipse cx="776.0961" cy="307.2345" fill="transparent" rx="4" ry="4" style="stroke:#181818;stroke-width:1;"/><text fill="#000000" font-family="sans-serif" font-size="13" lengthAdjust="spacing" textLength="52.0063" x="750.5" y="261.0669">initiates</text></g><!--link User to CallParticipant--><g id="link_User_CallParticipant"><path codeLine="85" d="M755.0634,128.0843 C847.2734,147.2043 982.52,191.06 1048.5,295 C1100.26,376.53 1081.2506,473.7503 1054.2406,549.7103 " fill="transparent" id="User-CallParticipant" style="stroke:#181818;stroke-width:1;"/><line style="stroke:#181818;stroke-width:1;" x1="750.3346" x2="751.9588" y1="131.1888" y2="123.3554"/><line style="stroke:#181818;stroke-width:1;" x1="753.2721" x2="754.8963" y1="131.7979" y2="123.9646"/><line style="stroke:#181818;stroke-width:1;" x1="755.0634" x2="747.23" y1="128.0843" y2="126.46"/><line style="stroke:#181818;stroke-width:1;" x1="1050.8903" x2="1053.8632" y1="559.1323" y2="568.6802"/><line style="stroke:#181818;stroke-width:1;" x1="1050.8903" x2="1042.5568" y1="559.1323" y2="564.6598"/><line style="stroke:#181818;stroke-width:1;" x1="1050.8903" x2="1048.21" y1="559.1323" y2="566.67"/><ellipse cx="1052.9004" cy="553.4791" fill="transparent" rx="4" ry="4" style="stroke:#181818;stroke-width:1;"/><text fill="#000000" font-family="sans-serif" font-size="13" lengthAdjust="spacing" textLength="95.4688" x="1080.5" y="397.0669">participates_in</text></g><!--link Message to MediaFile--><g id="link_Message_MediaFile"><path codeLine="86" d="M392.5,508.06 C392.5,539.26 392.5,547.06 392.5,575.27 " fill="transparent" id="Message-MediaFile" style="stroke:#181818;stroke-width:1;"/><line style="stroke:#181818;stroke-width:1;" x1="392.5" x2="386.5" y1="498.06" y2="490.06"/><line style="stroke:#181818;stroke-width:1;" x1="392.5" x2="398.5" y1="498.06" y2="490.06"/><line style="stroke:#181818;stroke-width:1;" x1="392.5" x2="392.5" y1="498.06" y2="490.06"/><ellipse cx="392.5" cy="504.06" fill="transparent" rx="4" ry="4" style="stroke:#181818;stroke-width:1;"/><line style="stroke:#181818;stroke-width:1;" x1="396.5" x2="388.5" y1="579.27" y2="579.27"/><line style="stroke:#181818;stroke-width:1;" x1="396.5" x2="388.5" y1="576.27" y2="576.27"/><line style="stroke:#181818;stroke-width:1;" x1="392.5" x2="392.5" y1="575.27" y2="583.27"/><text fill="#000000" font-family="sans-serif" font-size="13" lengthAdjust="spacing" textLength="56.2847" x="393.5" y="533.0669">attaches</text></g><!--link Call to CallParticipant--><g id="link_Call_CallParticipant"><path codeLine="87" d="M883.8856,472.2256 C907.2256,503.6956 919.1675,519.8022 943.1375,552.1222 " fill="transparent" id="Call-CallParticipant" style="stroke:#181818;stroke-width:1;"/><line style="stroke:#181818;stroke-width:1;" x1="878.29" x2="884.7156" y1="471.3956" y2="466.63"/><line style="stroke:#181818;stroke-width:1;" x1="880.0771" x2="886.5027" y1="473.8052" y2="469.0396"/><line style="stroke:#181818;stroke-width:1;" x1="883.8856" x2="879.12" y1="472.2256" y2="465.8"/><line style="stroke:#181818;stroke-width:1;" x1="949.0944" x2="958.6793" y1="560.1543" y2="563.0058"/><line style="stroke:#181818;stroke-width:1;" x1="949.0944" x2="949.0407" y1="560.1543" y2="570.1542"/><line style="stroke:#181818;stroke-width:1;" x1="949.0944" x2="953.86" y1="560.1543" y2="566.58"/><ellipse cx="945.5202" cy="555.3351" fill="transparent" rx="4" ry="4" style="stroke:#181818;stroke-width:1;"/><text fill="#000000" font-family="sans-serif" font-size="13" lengthAdjust="spacing" textLength="53.8726" x="932.5" y="533.0669">includes</text></g><!--link User to Device--><g id="link_User_Device"><path codeLine="88" d="M755.171,133.2233 C850.061,154.7933 999.42,193.25 1127.5,248 C1179.14,270.08 1218.0865,291.2884 1262.5765,318.5784 " fill="transparent" id="User-Device" style="stroke:#181818;stroke-width:1;"/><line style="stroke:#181818;stroke-width:1;" x1="750.3839" x2="752.1571" y1="136.2371" y2="128.4361"/><line style="stroke:#181818;stroke-width:1;" x1="753.3092" x2="755.0825" y1="136.9021" y2="129.1011"/><line style="stroke:#181818;stroke-width:1;" x1="755.171" x2="747.37" y1="133.2233" y2="131.45"/><line style="stroke:#181818;stroke-width:1;" x1="1271.1007" x2="1281.0572" y1="323.8071" y2="322.8755"/><line style="stroke:#181818;stroke-width:1;" x1="1271.1007" x2="1274.7828" y1="323.8071" y2="333.1045"/><line style="stroke:#181818;stroke-width:1;" x1="1271.1007" x2="1277.92" y1="323.8071" y2="327.99"/><ellipse cx="1265.9862" cy="320.6699" fill="transparent" rx="4" ry="4" style="stroke:#181818;stroke-width:1;"/><text fill="#000000" font-family="sans-serif" font-size="13" lengthAdjust="spacing" textLength="33.5981" x="1164.5" y="261.0669">owns</text></g><!--SRC=[fLLDR-8m4BtdLqorXu8Kj7U4a5PRLTh3IgjLUuwSU09J73kodHPK-jztx01D843HHXo8v-kzcPVndSIID88NkSBHUWo54ix16cOp63sbtnuVV_0pXlaykTkvrfOgOJVP2ZSXO9RFrxFl-QUzD1PfeGzs2dQQ9ydzvFoJtCDJWE3W8MGXJqQxon59Y_dPeHt3UmByTA6H74_X-VdNGxIKP9tFjAXm2ivRqejup6G7Jh4If7edDJVbpLYPBOLRzYpaCgCLyvv2Ren2eJyJEqGz1IayUgfmXz2Kf32hgV2DxPSjBBAhp8G_2cfgUMhus3VWfz5U5FuBFUWCfk6kPUVDHPlpo8EvvieKAvHzieF03_X-etDYWRVXSwZbHOGM2wJN4vS073NZyBZsyQHgosT-KtExKJSLZ88n1SQnm1HUIQ998Omb1T58CkCOwBpmZTk7C20EaQX2KPGfC6SvtbMG9B8uLf8TB27aT9WXxjmaXLAtjIb-ASARapPmfXxZo6l7TOXU427_KZ1wOUAVC02cMP5pBTqNB7Z8Xs0xADKOTO7U7uwZWcgXRnHiP7IJdYqBT4_lqAT0f1LEI-I5oGxnK5WEp8u_WAhnNVbtLCuYU6GDV6KNiL8QszymyR0xiIlgR6fbHEXrlkcaFfmEJ-01Nwd0_zuKCgRfwqjBQuXrGiQby8PvYx8igioRLLY3rnRTnzKBuYyg4U-59TNNxePmAy1sEvcOTzWjI9W2R-yp5fxiVkUPikUpMr_i4tRIKJoBCWItwi9JOqVkx5VltzWr8vtiKt-OoMIxXOE4s5LunhBaZB74sOoa2zN8eyBjbDbgthJx1m00]--></g></svg>